# xmcd
#
# Track frame offsets:
#	150
#	19237
#	37510
#	55760
#	73407
#	89795
#	107985
#	125410
#	142197
#	160695
#	179640
#	194840
#	213295
#	231920
#	252502
#	263189
#	277176
#	289731
#	302747
#	315152
#	327176
#	338620
#
# Disc length: 4684 seconds
#
# Revision: 0
# Processed by: cddbd v1.5.2PL0 Copyright (c) Steve Scherf et al.
# Submitted via: EZCDAudioConverter 7.0.8.1
#
DISCID=57124a16
DTITLE=Milestones of Legends
DYEAR=2017
DGENRE=Blues
TTITLE0=Meade Lux Lewis - The Blues, Part One
TTITLE1=Meade Lux Lewis - The Blues, Part Two
TTITLE2=Meade Lux Lewis - The Blues, Part Three
TTITLE3=Meade Lux Lewis - The Blues, Part Four
TTITLE4=Albert Ammons - Boogie Woogie Stomp
TTITLE5=Albert Ammons - Chicago Mind
TTITLE6=Albert Ammons - Suitcase Blues
TTITLE7=Albert Ammons - Boogie Woogie Blues
TTITLE8=Meade Lux Lewis - Melancholy
TTITLE9=Meade Lux Lewis - Solitude
TTITLE10=Albert Ammons - Bass Goin' Crazy
TTITLE11=Albert Ammons - Backwater Blues
TTITLE12=Albert Ammons - Changes in Boogie Woogie
TTITLE13=Albert Ammons and Meade Lux Lewis - Twos and Fews
TTITLE14=Albert Ammons - Cuttin' the Boogie
TTITLE15=Albert Ammons - Barrel House Boogie
TTITLE16=Albert Ammons - Boogie Woogie Man
TTITLE17=Albert Ammons - Walk'in the Boogie
TTITLE18=Albert Ammons - Sixth Avenue Express
TTITLE19=Albert Ammons - Pine Creek
TTITLE20=Albert Ammons - Foot Pedal Boogie
TTITLE21=Albert Ammons - Movin' the Boogie
EXTD=
EXTT0=
EXTT1=
EXTT2=
EXTT3=
EXTT4=
EXTT5=
EXTT6=
EXTT7=
EXTT8=
EXTT9=
EXTT10=
EXTT11=
EXTT12=
EXTT13=
EXTT14=
EXTT15=
EXTT16=
EXTT17=
EXTT18=
EXTT19=
EXTT20=
EXTT21=
PLAYORDER=
